Simulation
nRows=27
nColumns=15
endheader
time  TH_x TH_y TH_z SC_y  SC_z  SC_x  AC_y  AC_z  AC_x  GH_y  GH_z  GH_yy  EL_x  PS_y
0.0  0.000000  0.000000  0.000000  -29.937820847521234  -0.012610632182231497  -4.508532797222186  52.841108695706225  10.232993613217701  -4.593030891520522  106.16346199142116  2.317874248796908  -78.27092172192597  22.799690826330167  0.000000
0.03099999999999998  0.000000  0.000000  0.000000  -29.891883092086097  -0.0852455076748351  -3.155574518526052  52.78425003713418  9.3748420951006  -5.625779674928422  95.40519907404052  2.6328761335955  -67.553199289224  22.76518790875123  0.000000
0.06199999999999996  0.000000  0.000000  0.000000  -29.829415040029918  -0.17469630426963412  -1.8543339830196743  52.72297894060082  8.499756941788744  -6.644564632021163  87.84040788988204  3.009157229909804  -60.026740629302964  22.72434613540764  0.000000
0.09299999999999994  0.000000  0.000000  0.000000  -29.770133753847098  -0.2785091878458395  -0.6150333379101338  52.657069846663354  7.624089743511154  -7.634821307806878  82.48969378923267  3.424890468690382  -54.732019044040726  22.663359932723637  0.000000
0.12399999999999992  0.000000  0.000000  0.000000  -29.715909352013078  -0.39115090140266157  0.5558259339543834  52.590815706094766  6.7638527839786775  -8.584673239876668  78.57939545667146  3.8701399381554746  -50.911710081251414  22.572427142051836  0.000000
0.1549999999999999  0.000000  0.000000  0.000000  -29.679453238350455  -0.506007360670326  1.653300902916033  52.527707632912566  5.932673608865089  -9.482071712347683  75.53228110798857  4.346706570170911  -48.00947791906299  22.448733476573576  0.000000
0.1859999999999999  0.000000  0.000000  0.000000  -29.666301586453244  -0.6157483402782715  2.673679511803178  52.46959265334988  5.14154976161877  -10.31727060904046  72.97362768767093  4.860534376641555  -45.670308817189756  22.29336726041424  0.000000
0.21699999999999986  0.000000  0.000000  0.000000  -29.67984642270251  -0.7148625689154582  3.6139854069046886  52.41928661299984  4.399216494762134  -11.081739007263511  70.64226956123107  5.418625900189792  -43.646979939998644  22.112409974452415  0.000000
0.24799999999999983  0.000000  0.000000  0.000000  -29.71846646925347  -0.7995222440759928  4.471843565998981  52.37847153210797  3.7120534572530923  -11.767995528507944  68.38242165137386  6.0277679613591415  -41.79469299574896  21.914426368164857  0.000000
0.2789999999999998  0.000000  0.000000  0.000000  -29.7780669967355  -0.8676530486003119  5.246142873140359  52.349310424475725  3.0838787235455043  -12.370410661449853  66.10123008128816  6.694167471228227  -40.02601609220417  21.710446299564648  0.000000
0.3099999999999998  0.000000  0.000000  0.000000  -29.853515438093808  -0.9183663531731997  5.935766504345717  52.333212497156616  2.517280847907133  -12.885066470171877  63.75408022635894  7.424195610174528  -38.29811329544723  21.514141285056915  0.000000
0.34099999999999975  0.000000  0.000000  0.000000  -29.93999824027743  -0.9519473350396587  6.5390679109786145  52.33231857454179  2.0136788406585513  -13.308335691832632  61.31908613614017  8.224175897363992  -36.586709666865424  21.340862499981437  0.000000
0.3719999999999998  0.000000  0.000000  0.000000  -30.034058733156023  -0.9697925900521931  7.054002663948653  52.349397074046685  1.5732934501498834  -13.63665440346747  58.78833762643977  9.10021290823001  -34.8782074808893  21.206672396475593  0.000000
0.40299999999999975  0.000000  0.000000  0.000000  -30.133472959260608  -0.9738026892869991  7.478133608075098  52.387590437306386  1.195591465836462  -13.867473099179886  56.167577883463814  10.058466000229938  -33.16862751318092  21.12447038417878  0.000000
0.4339999999999997  0.000000  0.000000  0.000000  -30.236228297166175  -0.9656354480237428  7.8086167543969305  52.449366057368785  0.880709349363243  -14.000444009940345  53.47912431894097  11.105106841507098  -31.464977150599978  21.100673072015255  0.000000
0.4649999999999997  0.000000  0.000000  0.000000  -30.339593908959397  -0.9456530824275688  8.043317200949971  52.53553837880876  0.6295305124284439  -14.037044101086884  50.76204945295971  12.245729692068585  -29.784885431787284  21.132247214522664  0.000000
0.49599999999999966  0.000000  0.000000  0.000000  -30.440885807348966  -0.91284896033911  8.183511227838425  52.64487589467312  0.44275198543360217  -13.981054432899755  48.06884788284097  13.484823953224678  -28.154489465588938  21.20665133252205  0.000000
0.5269999999999997  0.000000  0.000000  0.000000  -30.538303976159312  -0.8651442129163868  8.23513555096769  52.77428676326203  0.3209919641457924  -13.839602017729364  45.46041384256632  14.825628847791407  -26.60659080273674  21.304795788427736  0.000000
0.5579999999999996  0.000000  0.000000  0.000000  -30.631783606686643  -0.799757045035  8.20823167476082  52.919258074681906  0.26527376796748176  -13.6226887626492  42.996369695447115  16.26901107206202  -25.175394662528582  21.40630351853959  0.000000
0.5889999999999996  0.000000  0.000000  0.000000  -30.72385504097836  -0.7138664761710027  8.116914214556383  53.07441028565284  0.2759860351329464  -13.342898340621893  40.725735601765756  17.812204783736938  -23.891137703776934  21.494639349908827  0.000000
0.6199999999999996  0.000000  0.000000  0.000000  -30.818112723460718  -0.6051427034519917  7.9793904977474615  53.234668071998115  0.35160063558368077  -13.0148734999054  38.68050875209331  19.44777458352482  -22.775387730136963  21.559608860430057  0.000000
0.6509999999999996  0.000000  0.000000  0.000000  -30.91639475302993  -0.47239022973916944  7.8174490949802085  53.39669657879789  0.4881452255360172  -12.654249271854665  36.871073344541834  21.163180341100144  -21.836350383486522  21.597690586427543  0.000000
0.6819999999999995  0.000000  0.000000  0.000000  -31.016800521138876  -0.3165579569821852  7.655592046515136  53.55980237681579  0.6795954002899035  -12.276816347789154  35.28561867642576  22.940838832411085  -21.06711596005451  21.609882914063146  0.000000
0.7129999999999995  0.000000  0.000000  0.000000  -31.112415729720567  -0.14098379332622718  7.519215934277119  53.72552030111709  0.9190473683174077  -11.898143753231997  33.8956209885715  24.75860563852098  -20.449311843150376  21.598692963369384  0.000000
0.7439999999999996  0.000000  0.000000  0.000000  -31.192493385485786  0.04955538851480056  7.432860570479975  53.89685843416419  1.1992071197647376  -11.532608822726045  32.665604709411056  26.590825133249048  -19.960001435264523  21.566449044694508  0.000000
0.7749999999999995  0.000000  0.000000  0.000000  -31.24563065621084  0.25014563920475313  7.419234148070522  54.07692101028729  1.51193100023664  -11.192269472647387  31.56309480297572  28.40988288551153  -19.578650295712777  21.515324563710596  0.000000
0.8059999999999995  0.000000  0.000000  0.000000  -31.26269690280782  0.45689391082833775  7.498083766298142  54.26808388361009  1.8477458815559673  -10.88644195698059  30.563741657918328  30.188363439085823  -19.28998461883784  21.446416856853926  0.000000
